ffmpeg version 3.4.8-0ubuntu0.2 Copyright (c) 2000-2020 the FFmpeg developers
  built with gcc 7 (Ubuntu 7.5.0-3ubuntu1~18.04)
  configuration: --prefix=/usr --extra-version=0ubuntu0.2 --toolchain=hardened --libdir=/usr/lib/x86_64-linux-gnu --incdir=/usr/include/x86_64-linux-gnu --enable-gpl --disable-stripping --enable-avresample --enable-avisynth --enable-gnutls --enable-ladspa --enable-libass --enable-libbluray --enable-libbs2b --enable-libcaca --enable-libcdio --enable-libflite --enable-libfontconfig --enable-libfreetype --enable-libfribidi --enable-libgme --enable-libgsm --enable-libmp3lame --enable-libmysofa --enable-libopenjpeg --enable-libopenmpt --enable-libopus --enable-libpulse --enable-librubberband --enable-librsvg --enable-libshine --enable-libsnappy --enable-libsoxr --enable-libspeex --enable-libssh --enable-libtheora --enable-libtwolame --enable-libvorbis --enable-libvpx --enable-libwavpack --enable-libwebp --enable-libx265 --enable-libxml2 --enable-libxvid --enable-libzmq --enable-libzvbi --enable-omx --enable-openal --enable-opengl --enable-sdl2 --enable-libdc1394 --enable-libdrm --enable-libiec61883 --enable-chromaprint --enable-frei0r --enable-libopencv --enable-libx264 --enable-shared
  libavutil      55. 78.100 / 55. 78.100
  libavcodec     57.107.100 / 57.107.100
  libavformat    57. 83.100 / 57. 83.100
  libavdevice    57. 10.100 / 57. 10.100
  libavfilter     6.107.100 /  6.107.100
  libavresample   3.  7.  0 /  3.  7.  0
  libswscale      4.  8.100 /  4.  8.100
  libswresample   2.  9.100 /  2.  9.100
  libpostproc    54.  7.100 / 54.  7.100
[rawvideo @ 0x55c310b97a20] Estimating duration from bitrate, this may be inaccurate
Input #0, rawvideo, from '../../SVC-Encoder-20220109T061506Z-001/SVC-Encoder/Dataset/RollerCoaster/ERP_8x8/tile_yuv/Tile_28_480x240.yuv':
  Duration: 00:00:10.00, start: 0.000000, bitrate: 41472 kb/s
    Stream #0:0: Video: rawvideo (I420 / 0x30323449), yuv420p, 480x240, 41472 kb/s, 30 tbr, 30 tbn, 30 tbc
Stream mapping:
  Stream #0:0 -> #0:0 (rawvideo (native) -> h264 (libx264))
Press [q] to stop, [?] for help
[libx264 @ 0x55c310ba4c60] using cpu capabilities: MMX2 SSE2Fast LZCNT SSSE3 SSE4.2 AVX
[libx264 @ 0x55c310ba4c60] profile High, level 2.1
Output #0, rawvideo, to 'RollerCoaster_Tile_28_480x240_x264_QP_36.h264':
  Metadata:
    encoder         : Lavf57.83.100
    Stream #0:0: Video: h264 (libx264), yuv420p, 480x240, q=-1--1, 30 fps, 30 tbn, 30 tbc
    Metadata:
      encoder         : Lavc57.107.100 libx264
    Side data:
      cpb: bitrate max/min/avg: 0/0/0 buffer size: 0 vbv_delay: -1
frame=  300 fps=0.0 q=42.0 LPSNR=Y:inf U:inf V:inf *:inf size=      17kB time=00:00:09.93 bitrate=  13.7kbits/s speed=28.6x    
video:17kB audio:0kB subtitle:0kB other streams:0kB global headers:0kB muxing overhead: 0.000000%
[libx264 @ 0x55c310ba4c60] frame I:2     Avg QP:35.21  size:   895  PSNR Mean Y:43.26 U:46.34 V:46.33 Avg:44.06 Global:44.05
[libx264 @ 0x55c310ba4c60] frame P:81    Avg QP:37.79  size:   102  PSNR Mean Y:42.93 U:46.33 V:45.50 Avg:43.69 Global:43.62
[libx264 @ 0x55c310ba4c60] frame B:217   Avg QP:41.69  size:    32  PSNR Mean Y:42.93 U:46.40 V:45.48 Avg:43.69 Global:43.62
[libx264 @ 0x55c310ba4c60] consecutive B-frames:  1.0%  6.7%  3.0% 89.3%
[libx264 @ 0x55c310ba4c60] mb I  I16..4:  9.2% 88.8%  2.0%
[libx264 @ 0x55c310ba4c60] mb P  I16..4:  0.8%  3.0%  0.0%  P16..4:  3.3%  0.6%  0.1%  0.0%  0.0%    skip:92.1%
[libx264 @ 0x55c310ba4c60] mb B  I16..4:  0.0%  0.0%  0.0%  B16..8:  2.7%  0.1%  0.0%  direct: 0.0%  skip:97.2%  L0:35.4% L1:64.3% BI: 0.3%
[libx264 @ 0x55c310ba4c60] 8x8 transform intra:82.7% inter:82.4%
[libx264 @ 0x55c310ba4c60] coded y,uvDC,uvAC intra: 2.7% 10.9% 1.0% inter: 0.1% 0.2% 0.0%
[libx264 @ 0x55c310ba4c60] i16 v,h,dc,p: 55% 34%  7%  4%
[libx264 @ 0x55c310ba4c60] i8 v,h,dc,ddl,ddr,vr,hd,vl,hu:  5%  1% 93%  0%  0%  1%  0%  0%  0%
[libx264 @ 0x55c310ba4c60] i4 v,h,dc,ddl,ddr,vr,hd,vl,hu: 25% 11% 33%  3%  7%  9%  4%  6%  1%
[libx264 @ 0x55c310ba4c60] i8c dc,h,v,p: 91%  4%  4%  1%
[libx264 @ 0x55c310ba4c60] Weighted P-Frames: Y:7.4% UV:0.0%
[libx264 @ 0x55c310ba4c60] ref P L0: 69.9% 10.3% 16.5%  3.2%  0.1%
[libx264 @ 0x55c310ba4c60] ref B L0: 86.2% 12.7%  1.1%
[libx264 @ 0x55c310ba4c60] ref B L1: 91.3%  8.7%
[libx264 @ 0x55c310ba4c60] PSNR Mean Y:42.930 U:46.378 V:45.489 Avg:43.695 Global:43.619 kb/s:13.61
